# xmcd
#
# Track frame offsets:
#	225
#	20262
#	39177
#	75487
#	89410
#	108247
#	125000
#	142907
#	172785
#
# Disc length: 2617 seconds
#
# Revision: 0
# Processed by: cddbd v1.5.1PL0 Copyright (c) Steve Scherf et al.
# Submitted via: dBpowerAMP V4.0
#
DISCID=5f0a3609
DTITLE=Who Dat ? Blues Band - The IIVV Project
DYEAR=2002
DGENRE=Blues
TTITLE0=Too Much
TTITLE1=Cheatin' with a Cheater
TTITLE2=Three Long Years
TTITLE3=My Baby Blue Eyes
TTITLE4=Like a Dawg Treat
TTITLE5=All Night Long
TTITLE6=The Deep Blue
TTITLE7=The Vision ofYou
TTITLE8=Dark Man Runnin'
EXTD=Who Dat ? Blues Band\nThe IIVV Project
EXTT0=
EXTT1=
EXTT2=
EXTT3=
EXTT4=
EXTT5=
EXTT6=
EXTT7=
EXTT8=
PLAYORDER=
